#N canvas 336 147 797 710 10;
#X declare -stdpath Fraise;
#X obj 56 25 declare -stdpath Fraise;
#X obj 58 53 pied/pied 0 59999;
#X obj 58 138 fruit/fruit 1 fruit1 1 fwStepLed;
#X obj 60 213 fruit/receive fruit1;
#X floatatom 60 367 8 0 0 3 pos - -, f 8;
#X floatatom 160 362 8 0 0 3 consign - -, f 8;
#X obj 369 166 fruit/send2 fruit1;
#X msg 355 121 c 5 l \$1;
#X floatatom 369 74 5 0 0 2 pos - -, f 5;
#X floatatom 442 99 5 0 255 2 speed - -, f 5;
#X msg 442 122 c 4 c \$1;
#X obj 34 402 print;
#X obj 60 264 list split 4, f 34;
#N canvas 1 81 450 300 convert32bit 0;
#X obj 102 32 inlet;
#X obj 102 53 unpack f f f f, f 23;
#X obj 102 74 << 24;
#X obj 147 74 << 16;
#X obj 192 74 << 8;
#X obj 102 95 +;
#X obj 147 95 +;
#X obj 192 95 +;
#X obj 102 116 outlet;
#X connect 0 0 1 0;
#X connect 1 0 2 0;
#X connect 1 1 3 0;
#X connect 1 2 4 0;
#X connect 1 3 7 1;
#X connect 2 0 5 0;
#X connect 3 0 6 0;
#X connect 4 0 7 0;
#X connect 5 0 8 0;
#X connect 6 0 5 1;
#X connect 7 0 6 1;
#X restore 60 285 pd convert32bit;
#N canvas 1 81 450 300 convert32bit 0;
#X obj 102 32 inlet;
#X obj 102 53 unpack f f f f, f 23;
#X obj 102 74 << 24;
#X obj 147 74 << 16;
#X obj 192 74 << 8;
#X obj 102 95 +;
#X obj 147 95 +;
#X obj 192 95 +;
#X obj 102 116 outlet;
#X connect 0 0 1 0;
#X connect 1 0 2 0;
#X connect 1 1 3 0;
#X connect 1 2 4 0;
#X connect 1 3 7 1;
#X connect 2 0 5 0;
#X connect 3 0 6 0;
#X connect 4 0 7 0;
#X connect 5 0 8 0;
#X connect 6 0 5 1;
#X connect 7 0 6 1;
#X restore 160 285 pd convert32bit;
#X obj 374 34 * 100;
#X floatatom 374 13 5 0 0 0 - - -, f 5;
#X msg 298 119 c 2 c 1;
#X floatatom 511 99 5 0 253 2 current - -, f 5;
#X msg 511 122 c 3 c \$1;
#X msg 425 58 c 3 c \$1;
#X obj 438 28 + 254;
#X obj 449 4 tgl 15 0 empty empty empty 17 7 0 10 -262144 -1 -1 0 1
;
#X text 507 62 ~20mA/div;
#X floatatom 545 197 5 0 0 0 mA - -, f 5;
#X obj 545 174 + 160;
#X obj 545 154 * 20;
#X msg 570 281 c 10 i \$1;
#X obj 573 238 hsl 128 15 0 1 0 0 empty empty empty -2 -8 0 10 -262144
-1 -1 500 1;
#X obj 570 258 * 1023;
#X obj 60 234 route 1, f 26;
#X obj 278 234 route 2;
#N canvas 1 81 450 300 convert32bit 0;
#X obj 102 32 inlet;
#X obj 102 53 unpack f f f f, f 23;
#X obj 102 74 << 24;
#X obj 147 74 << 16;
#X obj 192 74 << 8;
#X obj 102 95 +;
#X obj 147 95 +;
#X obj 192 95 +;
#X obj 102 116 outlet;
#X connect 0 0 1 0;
#X connect 1 0 2 0;
#X connect 1 1 3 0;
#X connect 1 2 4 0;
#X connect 1 3 7 1;
#X connect 2 0 5 0;
#X connect 3 0 6 0;
#X connect 4 0 7 0;
#X connect 5 0 8 0;
#X connect 6 0 5 1;
#X connect 7 0 6 1;
#X restore 278 288 pd convert32bit;
#X floatatom 278 364 8 0 0 3 onDetect - -, f 8;
#X msg 294 61 c 6 l 0;
#X text 294 42 reset;
#X obj 356 333 bng 15 250 50 0 empty empty empty 17 7 0 10 -262144
-1 -1;
#X obj 353 394 -;
#X floatatom 353 415 5 0 0 0 - - -, f 5;
#X obj 353 373 t f f f;
#X obj 437 451 i;
#X obj 437 472 + 1;
#X obj 248 18 t b b;
#X obj 218 14 bng 15 250 50 0 empty empty empty 17 7 0 10 -262144 -1
-1;
#X obj 278 258 list split 4, f 34;
#N canvas 1 81 450 300 convert32bit 0;
#X obj 102 32 inlet;
#X obj 102 53 unpack f f f f, f 23;
#X obj 102 74 << 24;
#X obj 147 74 << 16;
#X obj 192 74 << 8;
#X obj 102 95 +;
#X obj 147 95 +;
#X obj 192 95 +;
#X obj 102 116 outlet;
#X connect 0 0 1 0;
#X connect 1 0 2 0;
#X connect 1 1 3 0;
#X connect 1 2 4 0;
#X connect 1 3 7 1;
#X connect 2 0 5 0;
#X connect 3 0 6 0;
#X connect 4 0 7 0;
#X connect 5 0 8 0;
#X connect 6 0 5 1;
#X connect 7 0 6 1;
#X restore 392 288 pd convert32bit;
#X floatatom 392 309 5 0 0 0 count - -, f 5;
#X obj 466 330 mod 3;
#X obj 707 208 bng 15 250 50 0 empty empty empty 17 7 0 10 -262144
-1 -1;
#X obj 627 142 sel 0;
#X obj 627 163 del 100;
#X msg 627 184 0;
#X msg 664 183 1;
#X obj 466 354 sel 0;
#X floatatom 414 393 5 0 0 0 - - -, f 5;
#X obj 413 369 div 3;
#X obj 466 311 + 1;
#X obj 600 61 metro 2000;
#X obj 604 32 tgl 15 0 empty empty empty 17 7 0 10 -262144 -1 -1 0
1;
#X obj 159 487 netreceive -u 43210;
#X obj 199 558 route -1 0 1;
#X obj 241 69 t b b;
#X msg 483 447 1600;
#X obj 483 468 * 24;
#X obj 483 489 * 180;
#X floatatom 483 510 0 0 0 0 - - -;
#X msg 241 90 80000;
#X msg 248 39 -80000;
#X msg 71 473 0;
#X msg 74 494 go \$1;
#X msg 46 474 -1;
#X msg 100 471 1;
#X obj 314 627 netsend -u;
#X msg 304 601 connect localhost 43211;
#X obj 159 508 t a b;
#X obj 314 648 == 0;
#X obj 314 537 spigot;
#X obj 347 516 != 0;
#X obj 314 558 list prepend send;
#X obj 314 579 list trim;
#X msg 314 496 p \$1;
#X obj 269 671 spigot 1;
#X obj 354 650 tgl 15 0 empty empty empty 17 7 0 10 -262144 -1 -1 0
1;
#X obj 159 534 route speed go lamp;
#X connect 3 0 30 0;
#X connect 7 0 6 0;
#X connect 8 0 7 0;
#X connect 9 0 10 0;
#X connect 10 0 6 0;
#X connect 12 0 13 0;
#X connect 12 1 14 0;
#X connect 13 0 4 0;
#X connect 14 0 5 0;
#X connect 15 0 8 0;
#X connect 16 0 15 0;
#X connect 17 0 6 0;
#X connect 18 0 19 0;
#X connect 18 0 26 0;
#X connect 19 0 6 0;
#X connect 20 0 6 0;
#X connect 21 0 20 0;
#X connect 22 0 21 0;
#X connect 25 0 24 0;
#X connect 26 0 25 0;
#X connect 27 0 6 0;
#X connect 28 0 29 0;
#X connect 29 0 27 0;
#X connect 30 0 12 0;
#X connect 30 1 31 0;
#X connect 31 0 44 0;
#X connect 32 0 33 0;
#X connect 32 0 36 0;
#X connect 32 0 39 0;
#X connect 34 0 6 0;
#X connect 37 0 38 0;
#X connect 39 0 37 1;
#X connect 39 1 37 0;
#X connect 40 0 41 0;
#X connect 42 0 67 0;
#X connect 42 1 34 0;
#X connect 43 0 42 0;
#X connect 44 0 32 0;
#X connect 44 1 45 0;
#X connect 45 0 46 0;
#X connect 45 0 55 0;
#X connect 45 0 56 0;
#X connect 45 0 80 0;
#X connect 49 0 48 0;
#X connect 49 0 50 0;
#X connect 49 0 52 0;
#X connect 50 0 51 0;
#X connect 51 0 28 0;
#X connect 52 0 28 0;
#X connect 53 0 34 0;
#X connect 55 0 54 0;
#X connect 56 0 47 0;
#X connect 57 0 43 0;
#X connect 58 0 57 0;
#X connect 59 0 74 0;
#X connect 60 0 61 0;
#X connect 60 1 34 0;
#X connect 60 2 42 0;
#X connect 61 0 66 0;
#X connect 61 1 34 0;
#X connect 62 0 63 0;
#X connect 63 0 64 0;
#X connect 64 0 65 0;
#X connect 66 0 16 0;
#X connect 67 0 16 0;
#X connect 68 0 69 0;
#X connect 69 0 74 0;
#X connect 70 0 69 0;
#X connect 71 0 69 0;
#X connect 72 0 75 0;
#X connect 72 0 77 0;
#X connect 72 0 82 0;
#X connect 73 0 72 0;
#X connect 74 0 83 0;
#X connect 74 1 81 0;
#X connect 75 0 81 1;
#X connect 76 0 78 0;
#X connect 77 0 76 1;
#X connect 78 0 79 0;
#X connect 79 0 72 0;
#X connect 80 0 76 0;
#X connect 81 0 73 0;
#X connect 83 0 9 0;
#X connect 83 1 60 0;
#X connect 83 2 28 0;
