#N canvas 585 215 649 448 10;
#X declare -stdpath Fraise;
#X obj 56 25 declare -stdpath Fraise;
#X obj 58 53 pied/pied 0 59999;
#X obj 58 138 fruit/fruit 1 fruit1 1 fwStepLed;
#X obj 60 213 fruit/receive fruit1;
#X floatatom 60 367 8 0 0 3 pos - -, f 8;
#X floatatom 160 362 8 0 0 3 consign - -, f 8;
#X obj 369 166 fruit/send2 fruit1;
#X msg 355 121 c 5 l \$1;
#X floatatom 369 74 5 0 0 2 pos - -, f 5;
#X floatatom 442 99 5 0 255 2 speed - -, f 5;
#X msg 442 122 c 4 c \$1;
#X obj 34 402 print;
#X obj 60 264 list split 4, f 34;
#N canvas 1 81 450 300 convert32bit 0;
#X obj 102 32 inlet;
#X obj 102 53 unpack f f f f, f 23;
#X obj 102 74 << 24;
#X obj 147 74 << 16;
#X obj 192 74 << 8;
#X obj 102 95 +;
#X obj 147 95 +;
#X obj 192 95 +;
#X obj 102 116 outlet;
#X connect 0 0 1 0;
#X connect 1 0 2 0;
#X connect 1 1 3 0;
#X connect 1 2 4 0;
#X connect 1 3 7 1;
#X connect 2 0 5 0;
#X connect 3 0 6 0;
#X connect 4 0 7 0;
#X connect 5 0 8 0;
#X connect 6 0 5 1;
#X connect 7 0 6 1;
#X restore 60 285 pd convert32bit;
#N canvas 1 81 450 300 convert32bit 0;
#X obj 102 32 inlet;
#X obj 102 53 unpack f f f f, f 23;
#X obj 102 74 << 24;
#X obj 147 74 << 16;
#X obj 192 74 << 8;
#X obj 102 95 +;
#X obj 147 95 +;
#X obj 192 95 +;
#X obj 102 116 outlet;
#X connect 0 0 1 0;
#X connect 1 0 2 0;
#X connect 1 1 3 0;
#X connect 1 2 4 0;
#X connect 1 3 7 1;
#X connect 2 0 5 0;
#X connect 3 0 6 0;
#X connect 4 0 7 0;
#X connect 5 0 8 0;
#X connect 6 0 5 1;
#X connect 7 0 6 1;
#X restore 160 285 pd convert32bit;
#X obj 374 34 * 100;
#X floatatom 369 12 5 0 0 0 - - -, f 5;
#X msg 298 119 c 2 c 1;
#X floatatom 511 99 5 0 253 2 current - -, f 5;
#X msg 511 122 c 3 c \$1;
#X msg 375 279 c 3 c \$1;
#X obj 388 249 + 254;
#X obj 399 225 tgl 15 0 empty empty empty 17 7 0 10 -262144 -1 -1 0
1;
#X text 507 62 ~20mA/div;
#X floatatom 545 197 5 0 0 0 mA - -, f 5;
#X obj 545 174 + 160;
#X obj 545 154 * 20;
#X msg 570 281 c 10 i \$1;
#X obj 573 238 hsl 128 15 0 1 0 0 empty empty empty -2 -8 0 10 -262144
-1 -1 10200 1;
#X obj 570 258 * 1023;
#X obj 60 234 route 1, f 26;
#X obj 278 234 route 2;
#N canvas 1 81 450 300 convert32bit 0;
#X obj 102 32 inlet;
#X obj 102 53 unpack f f f f, f 23;
#X obj 102 74 << 24;
#X obj 147 74 << 16;
#X obj 192 74 << 8;
#X obj 102 95 +;
#X obj 147 95 +;
#X obj 192 95 +;
#X obj 102 116 outlet;
#X connect 0 0 1 0;
#X connect 1 0 2 0;
#X connect 1 1 3 0;
#X connect 1 2 4 0;
#X connect 1 3 7 1;
#X connect 2 0 5 0;
#X connect 3 0 6 0;
#X connect 4 0 7 0;
#X connect 5 0 8 0;
#X connect 6 0 5 1;
#X connect 7 0 6 1;
#X restore 278 264 pd convert32bit;
#X floatatom 278 364 8 0 0 3 onDetect - -, f 8;
#X msg 294 61 c 6 l 0;
#X text 294 42 reset;
#X connect 3 0 30 0;
#X connect 7 0 6 0;
#X connect 8 0 7 0;
#X connect 9 0 10 0;
#X connect 10 0 6 0;
#X connect 12 0 13 0;
#X connect 12 1 14 0;
#X connect 13 0 4 0;
#X connect 14 0 5 0;
#X connect 15 0 8 0;
#X connect 16 0 15 0;
#X connect 17 0 6 0;
#X connect 18 0 19 0;
#X connect 18 0 26 0;
#X connect 19 0 6 0;
#X connect 20 0 6 0;
#X connect 21 0 20 0;
#X connect 22 0 21 0;
#X connect 25 0 24 0;
#X connect 26 0 25 0;
#X connect 27 0 6 0;
#X connect 28 0 29 0;
#X connect 29 0 27 0;
#X connect 30 0 12 0;
#X connect 30 1 31 0;
#X connect 31 0 32 0;
#X connect 32 0 33 0;
#X connect 34 0 6 0;
